<svg width="56" height="56" viewBox="0 0 56 56" fill="none" xmlns="http://www.w3.org/2000/svg">
<path fill-rule="evenodd" clip-rule="evenodd" d="M32.6874 11.475L46.8926 25.6802L45.1249 27.448L30.9196 13.2427L32.6874 11.475Z" fill="#8299BA"/>
<path fill-rule="evenodd" clip-rule="evenodd" d="M27.9739 16.1888L42.1791 30.3941L40.4114 32.1619L26.2061 17.9566L27.9739 16.1888Z" fill="#8299BA"/>
<path fill-rule="evenodd" clip-rule="evenodd" d="M17.9562 26.2064L32.1614 40.4117L30.3937 42.1794L16.1884 27.9742L17.9562 26.2064Z" fill="#8299BA"/>
<path fill-rule="evenodd" clip-rule="evenodd" d="M13.2427 30.9203L27.4479 45.1255L25.6802 46.8933L11.4749 32.688L13.2427 30.9203Z" fill="#8299BA"/>
<path fill-rule="evenodd" clip-rule="evenodd" d="M13.2421 30.9205C8.33872 26.0172 8.32105 18.085 13.2026 13.2034C18.0842 8.32185 26.0164 8.33952 30.9197 13.2429L32.6875 11.4751C26.8035 5.59108 17.2848 5.56988 11.4269 11.4277C5.56909 17.2856 5.59028 26.8043 11.4743 32.6883L13.2421 30.9205Z" fill="#8299BA"/>
<path fill-rule="evenodd" clip-rule="evenodd" d="M32.1615 40.4115L30.3938 42.1793C34.9702 46.7558 42.3736 46.7723 46.9297 42.2161C51.4859 37.66 51.4694 30.2566 46.8929 25.6801L45.1251 27.4479C48.7209 31.0437 48.7339 36.8607 45.1541 40.4405C41.5743 44.0203 35.7573 44.0073 32.1615 40.4115Z" fill="#8299BA"/>
<path fill-rule="evenodd" clip-rule="evenodd" d="M27.973 16.1895C24.7041 12.9206 19.416 12.9088 16.1616 16.1631C12.9072 19.4175 12.919 24.7057 16.1879 27.9746L17.9557 26.2068C15.6674 23.9186 15.6592 20.2169 17.9373 17.9388C20.2153 15.6607 23.917 15.669 26.2053 17.9572L27.973 16.1895Z" fill="#8299BA"/>
</svg>
