<svg width="50" height="50" viewBox="0 0 50 50" fill="none" xmlns="http://www.w3.org/2000/svg">
<path fill-rule="evenodd" clip-rule="evenodd" d="M46 2H4C2.89543 2 2 2.89543 2 4V31.7L18.6549 27.8139C19.5489 27.6053 20.4638 27.5 21.3817 27.5H28.6188C29.5367 27.5 30.4516 27.6053 31.3456 27.8139L48 31.6999V4C48 2.89543 47.1046 2 46 2ZM4 0C1.79086 0 0 1.79086 0 4V46C0 48.2091 1.79086 50 4 50H46C48.2091 50 50 48.2091 50 46V4C50 1.79086 48.2091 0 46 0H4ZM13.6363 18.1818C16.1467 18.1818 18.1817 16.1467 18.1817 13.6364C18.1817 11.126 16.1467 9.0909 13.6363 9.0909C11.1259 9.0909 9.09082 11.126 9.09082 13.6364C9.09082 16.1467 11.1259 18.1818 13.6363 18.1818Z" fill="#2A3647"/>
</svg>
