<svg width="70" height="70" viewBox="0 0 70 70" fill="none" xmlns="http://www.w3.org/2000/svg">
<rect width="70" height="70" rx="20" fill="#F26868"/>
<path d="M15.7324 31.1738L24.7168 31.2715C24.196 33.2572 23.8053 34.9499 23.5449 36.3496C23.3171 37.7493 23.1706 38.9212 23.1055 39.8652C22.9753 40.9395 22.9427 41.8509 23.0078 42.5996C23.1055 43.2832 23.2682 44.0156 23.4961 44.7969C23.6914 45.4479 23.9844 46.1966 24.375 47.043C24.7656 47.8893 25.2865 48.7357 25.9375 49.582C25.5469 49.4518 25.1237 49.3542 24.668 49.2891C24.2122 49.224 23.7891 49.1751 23.3984 49.1426C22.9427 49.11 22.487 49.11 22.0312 49.1426C21.5755 49.1751 21.071 49.224 20.5176 49.2891C20.0618 49.3542 19.5085 49.4355 18.8574 49.5332C18.2064 49.6309 17.5228 49.7611 16.8066 49.9238C17.2949 48.459 17.6693 47.1895 17.9297 46.1152C18.2227 45.041 18.4342 44.1458 18.5645 43.4297C18.6947 42.5833 18.776 41.8997 18.8086 41.3789C18.8086 40.7279 18.8086 39.9954 18.8086 39.1816C18.8086 38.3353 18.8086 37.5215 18.8086 36.7402C18.8086 35.959 18.7923 35.2754 18.7598 34.6895C18.7272 34.071 18.6621 33.6803 18.5645 33.5176L18.0762 33.0293C17.8809 32.8665 17.5879 32.6387 17.1973 32.3457C16.8392 32.0202 16.3509 31.6296 15.7324 31.1738ZM19.1992 23.6543C19.8828 23.2962 20.5664 23.1986 21.25 23.3613C21.9661 23.5241 22.5195 23.8333 22.9102 24.2891C23.3008 24.7448 23.431 25.2819 23.3008 25.9004C23.2031 26.5189 22.6823 27.1211 21.7383 27.707C20.7943 28.2604 19.9642 28.4557 19.248 28.293C18.5319 28.1302 18.0273 27.7884 17.7344 27.2676C17.4414 26.7467 17.3926 26.1445 17.5879 25.4609C17.7832 24.7448 18.3203 24.1426 19.1992 23.6543ZM25.9863 17.3555C28.1673 17.6159 30.0553 17.8112 31.6504 17.9414C33.2454 18.0391 34.5638 18.1204 35.6055 18.1855C36.8099 18.2507 37.819 18.2669 38.6328 18.2344C39.4792 18.2018 40.6348 18.1204 42.0996 17.9902C43.3366 17.8926 44.9642 17.7624 46.9824 17.5996C49.0007 17.4043 51.5234 17.1439 54.5508 16.8184C54.5833 17.5671 54.5996 18.2995 54.5996 19.0156C54.6322 19.6992 54.6647 20.3014 54.6973 20.8223C54.7298 21.4408 54.7461 22.0104 54.7461 22.5312C54.7461 23.0846 54.7135 23.7845 54.6484 24.6309C54.5833 25.347 54.4694 26.2585 54.3066 27.3652C54.1764 28.4395 53.9648 29.7253 53.6719 31.2227C53.2161 29.4648 52.7767 28.0488 52.3535 26.9746C51.9303 25.8678 51.5397 24.9889 51.1816 24.3379C50.791 23.5892 50.4004 23.0195 50.0098 22.6289C49.5866 22.3359 49.082 22.0918 48.4961 21.8965C47.9753 21.7337 47.3079 21.6035 46.4941 21.5059C45.7129 21.4082 44.7852 21.4245 43.7109 21.5547C43.5482 25.8516 43.4342 29.3346 43.3691 32.0039C43.304 34.6732 43.2552 36.7565 43.2227 38.2539C43.1901 40.0443 43.1738 41.3301 43.1738 42.1113C43.2064 43.2181 43.3854 44.3086 43.7109 45.3828C43.9714 46.2943 44.3945 47.2383 44.9805 48.2148C45.5664 49.1914 46.4128 50.054 47.5195 50.8027H41.5625C41.0091 50.8027 40.3255 50.8353 39.5117 50.9004C38.8281 50.9655 37.9492 51.0306 36.875 51.0957C35.8333 51.1608 34.6126 51.2747 33.2129 51.4375C33.7012 50.5911 34.0918 49.8262 34.3848 49.1426C34.6777 48.459 34.9056 47.873 35.0684 47.3848C35.2637 46.7988 35.4102 46.278 35.5078 45.8223C35.5404 45.1712 35.6217 43.8529 35.752 41.8672C35.7845 41.0534 35.8171 40.0443 35.8496 38.8398C35.9147 37.6354 35.9798 36.2031 36.0449 34.543C36.1426 32.8828 36.224 30.9785 36.2891 28.8301C36.3867 26.6491 36.4844 24.1914 36.582 21.457C35.9961 21.2943 35.4427 21.3105 34.9219 21.5059C34.401 21.6686 33.9453 21.8802 33.5547 22.1406C33.099 22.4661 32.6595 22.8568 32.2363 23.3125C31.8132 23.8659 31.3411 24.582 30.8203 25.4609C30.3646 26.2096 29.8438 27.2025 29.2578 28.4395C28.6719 29.6439 28.0046 31.1413 27.2559 32.9316C27.0931 31.0436 26.9792 29.4974 26.9141 28.293C26.849 27.056 26.8001 26.0957 26.7676 25.4121C26.735 24.5983 26.7188 23.9961 26.7188 23.6055C26.7188 23.2474 26.6862 22.7754 26.6211 22.1895C26.556 21.7012 26.4746 21.0664 26.377 20.2852C26.2793 19.4714 26.1491 18.4948 25.9863 17.3555Z" fill="white"/>
</svg>
