<svg width="22" height="22" viewBox="0 0 22 22" fill="none" xmlns="http://www.w3.org/2000/svg">
<path fill-rule="evenodd" clip-rule="evenodd" d="M13.1064 13.1063C10.7198 15.4929 6.85049 15.4929 4.46395 13.1063C2.07741 10.7198 2.07741 6.85044 4.46395 4.46391C6.85049 2.07737 10.7198 2.07737 13.1064 4.4639C15.4929 6.85044 15.4929 10.7198 13.1064 13.1063ZM13.8403 15.4113C10.5733 17.9102 5.88064 17.6657 2.8926 14.6777C-0.36177 11.4233 -0.36177 6.14693 2.8926 2.89256C6.14697 -0.361812 11.4233 -0.361813 14.6777 2.89256C17.6656 5.88047 17.9103 10.5728 15.4116 13.8399L21.3561 19.7844L19.7848 21.3557L13.8403 15.4113Z" fill="#DEDEDE"/>
</svg>
