<svg width="50" height="50" viewBox="0 0 50 50" fill="none" xmlns="http://www.w3.org/2000/svg">
<path d="M23.7996 4.16675C23.2913 4.16675 22.8535 4.53543 22.7701 5.03752L22.1801 8.58976C21.1661 8.76407 20.1857 9.03358 19.2423 9.38322L16.9474 6.60002C16.6245 6.20627 16.0626 6.10369 15.6209 6.35994L13.5457 7.5603C13.104 7.81447 12.9108 8.35077 13.09 8.82577L14.3514 12.1949C13.5692 12.8467 12.8466 13.5693 12.1948 14.3515L8.82564 13.0901C8.35064 12.9109 7.81435 13.1042 7.56018 13.5458L6.35982 15.621C6.10357 16.0627 6.20614 16.6246 6.59989 16.9475L9.3831 19.2424C9.03345 20.1859 8.76395 21.1662 8.58964 22.1803L5.03739 22.7703C4.53531 22.8557 4.16663 23.2893 4.16663 23.7997V26.2004C4.16663 26.7088 4.53531 27.1466 5.03739 27.2299L8.58964 27.8199C8.76395 28.834 9.03345 29.8143 9.3831 30.7577L6.59989 33.0527C6.20614 33.3756 6.10566 33.9375 6.35982 34.3792L7.56018 36.4543C7.81435 36.896 8.35064 37.0892 8.82564 36.9101L12.1948 35.6487C12.8466 36.4308 13.5692 37.1534 14.3514 37.8053L13.09 41.1744C12.9108 41.6515 13.1061 42.1857 13.5457 42.4399L15.6209 43.6402C16.0626 43.8944 16.6245 43.7918 16.9474 43.4002L19.2382 40.6169C20.1828 40.9672 21.1648 41.2359 22.1801 41.4104L22.7701 44.9627C22.8556 45.4647 23.2892 45.8334 23.7996 45.8334H26.2003C26.7087 45.8334 27.1464 45.4647 27.2298 44.9627L27.8198 41.4104C28.8338 41.2361 29.8142 40.9666 30.7576 40.6169L33.0525 43.4002C33.3755 43.7939 33.9374 43.8944 34.379 43.6402L36.4542 42.4399C36.8959 42.1857 37.0891 41.6494 36.91 41.1744L35.6486 37.8053C36.4307 37.1534 37.1533 36.4308 37.8051 35.6487L41.1743 36.9101C41.6514 37.0892 42.1856 36.8939 42.4397 36.4543L43.6401 34.3792C43.8943 33.9375 43.7917 33.3756 43.4 33.0527L40.6168 30.7618C40.9671 29.8173 41.2357 28.8352 41.4103 27.8199L44.9625 27.2299C45.4646 27.1445 45.8333 26.7109 45.8333 26.2004V23.7997C45.8333 23.2914 45.4646 22.8536 44.9625 22.7703L41.4103 22.1803C41.236 21.1662 40.9665 20.1859 40.6168 19.2424L43.4 16.9475C43.7938 16.6246 43.8943 16.0627 43.6401 15.621L42.4397 13.5458C42.1856 13.1042 41.6493 12.9109 41.1743 13.0901L37.8051 14.3515C37.1533 13.5693 36.4307 12.8467 35.6486 12.1949L36.91 8.82577C37.0891 8.34868 36.8938 7.81447 36.4542 7.5603L34.379 6.35994C33.9374 6.10578 33.3755 6.20835 33.0525 6.60002L30.7617 9.38322C29.8172 9.03292 28.8351 8.7643 27.8198 8.58976L27.2298 5.03752C27.1444 4.53543 26.7107 4.16675 26.2003 4.16675H23.7996ZM22.9166 12.6873V19.1122C21.6988 19.5428 20.6444 20.3401 19.8982 21.3944C19.1521 22.4488 18.7509 23.7084 18.75 25.0001C18.7501 25.3837 18.7855 25.7664 18.8558 26.1435L13.2893 29.3539C12.7879 27.9977 12.5 26.5355 12.5 25.0001C12.5 18.7837 16.9903 13.6747 22.9166 12.6873ZM27.0833 12.6873C33.0096 13.6747 37.5 18.7837 37.5 25.0001C37.5 26.5373 37.2091 28.0004 36.7065 29.358L31.1401 26.1394C31.2115 25.7638 31.2483 25.3824 31.25 25.0001C31.2481 23.7091 30.8466 22.4504 30.1005 21.3968C29.3545 20.3433 28.3004 19.5466 27.0833 19.1163V12.6873ZM29.0568 29.7445L34.6435 32.9713C32.3549 35.7418 28.8929 37.5001 25 37.5001C21.107 37.5001 17.645 35.7418 15.3564 32.9713L20.9391 29.7486C22.0706 30.7169 23.5107 31.2494 25 31.2501C26.4884 31.2473 27.9269 30.7134 29.0568 29.7445Z" fill="white"/>
</svg>
